<svg width="373" height="270" viewBox="0 0 373 270" fill="none" xmlns="http://www.w3.org/2000/svg">
<g filter="url(#filter0_i)">
<path opacity="0.69" d="M331.747 60.5433H234.459C226.232 60.5433 219.562 53.8738 219.562 45.6465C219.562 37.4191 226.232 30.7496 234.459 30.7496H267.347C275.597 30.7496 282.244 24.1033 282.244 15.8527C282.244 7.60211 275.597 0.955811 267.347 0.955811H121.014C112.763 0.955811 106.117 7.60211 106.117 15.8527C106.117 24.1033 112.763 30.7496 121.014 30.7496H152.756C161.006 30.7496 167.652 37.3959 167.652 45.6465C167.652 53.897 161.006 60.5433 152.756 60.5433H50.7692C42.5186 60.5433 35.8723 67.1896 35.8723 75.4402C35.8723 83.6908 42.5186 90.3371 50.7692 90.3371H91.3345C99.5851 90.3371 106.231 96.9834 106.231 105.234C106.231 113.485 99.5851 120.131 91.3345 120.131H74.2031C65.9525 120.131 59.3062 126.777 59.3062 135.028C59.3062 143.278 65.9525 149.925 74.2031 149.925H130.697V179.718H87.152C78.9014 179.718 72.2551 186.365 72.2551 194.615C72.2551 202.866 78.9014 209.512 87.152 209.512H166.564C174.814 209.512 181.461 216.158 181.461 224.409C181.461 232.66 174.814 239.306 166.564 239.306H122.16C113.909 239.306 107.263 245.952 107.263 254.203C107.263 262.453 113.909 269.1 122.16 269.1H292.099C300.349 269.1 306.996 262.453 306.996 254.203C306.996 245.952 300.349 239.306 292.099 239.306H249.413V209.512H262.935C271.186 209.512 277.832 202.866 277.832 194.615C277.832 186.365 271.186 179.718 262.935 179.718H249.413V149.925H305.907C314.157 149.925 320.804 143.278 320.804 135.028C320.804 126.777 314.157 120.131 305.907 120.131H282.244C274.016 120.131 267.347 113.461 267.347 105.234C267.347 97.0067 274.016 90.3371 282.244 90.3371H331.862C340.112 90.3371 346.759 83.6908 346.759 75.4402C346.644 67.2469 339.998 60.5433 331.747 60.5433Z" fill="#78D8CC"/>
<path d="M199.05 120.131H168.855C160.605 120.131 153.958 113.485 153.958 105.234C153.958 96.9834 160.605 90.3371 168.855 90.3371H199.05C207.301 90.3371 213.947 96.9834 213.947 105.234C213.947 113.485 207.301 120.131 199.05 120.131Z" fill="#59498D"/>
<path opacity="0.69" d="M307.568 209.512H328.309C336.56 209.512 343.206 202.866 343.206 194.615C343.206 186.365 336.56 179.718 328.309 179.718H307.568C299.318 179.718 292.671 186.365 292.671 194.615C292.671 202.866 299.318 209.512 307.568 209.512Z" fill="#78D8CC"/>
<path opacity="0.69" d="M358.103 149.925H350.998C342.748 149.925 336.102 143.278 336.102 135.028C336.102 126.777 342.748 120.131 350.998 120.131H358.103C366.354 120.131 373 126.777 373 135.028C373 143.278 366.354 149.925 358.103 149.925Z" fill="#78D8CC"/>
<path opacity="0.69" d="M59.6498 269.1H87.4955C95.7461 269.1 102.392 262.453 102.392 254.203C102.392 245.952 95.7461 239.306 87.4955 239.306H59.6498C51.3992 239.306 44.7529 245.952 44.7529 254.203C44.7529 262.453 51.3992 269.1 59.6498 269.1Z" fill="#78D8CC"/>
<path opacity="0.69" d="M15.4176 90.3371C23.6682 90.3371 30.3145 83.6908 30.3145 75.4402C30.3145 67.1897 23.6682 60.5434 15.4176 60.5434C7.16705 60.5434 0.520752 67.1897 0.520752 75.4402C0.520752 83.6908 7.16705 90.3371 15.4176 90.3371Z" fill="#78D8CC"/>
</g>
<defs>
<filter id="filter0_i" x="0.520752" y="0.955811" width="372.479" height="271.148" filterUnits="userSpaceOnUse" color-interpolation-filters="sRGB">
<feFlood flood-opacity="0" result="BackgroundImageFix"/>
<feBlend mode="normal" in="SourceGraphic" in2="BackgroundImageFix" result="shape"/>
<feColorMatrix in="SourceAlpha" type="matrix" values="0 0 0 0 0 0 0 0 0 0 0 0 0 0 0 0 0 0 127 0" result="hardAlpha"/>
<feOffset dy="3.00387"/>
<feGaussianBlur stdDeviation="1.50193"/>
<feComposite in2="hardAlpha" operator="arithmetic" k2="-1" k3="1"/>
<feColorMatrix type="matrix" values="0 0 0 0 0 0 0 0 0 0 0 0 0 0 0 0 0 0 0.25 0"/>
<feBlend mode="normal" in2="shape" result="effect1_innerShadow"/>
</filter>
</defs>
</svg>
