<svg width="1434" height="1973" viewBox="0 0 1434 1973" fill="none" xmlns="http://www.w3.org/2000/svg">
<g opacity="0.1" clip-path="url(#clip0)">
<path d="M1434 -35H-6V1973H1434V-35Z" fill="#FFFAFA"/>
<path d="M1662.6 2173.8L1309.8 1814.87L930 1621.6L550.2 1315.38L66.0001 1468.49L525 1882.64L221.7 2172.55L66.0001 1468.49L-360.6 1202.43L177.6 923.82L-61.7999 539.79L221.7 164.545L-130.2 -193.13M1378.2 539.79L1860.6 619.859L1378.2 539.79Z" stroke="#00BBFF" stroke-width="2.63475"/>
<path d="M660 2236.55L525 1882.64M-61.7998 539.79L420.6 620.11L696 923.82L1079.4 1202.43L549.3 1314.12L176.7 922.565L-61.7998 539.79Z" stroke="#00BBFF" stroke-width="2.63475"/>
<path d="M930 1621.6L1034.4 2078.42L1309.8 1814.87L1506 1468.49L1079.4 1202.43L930 1621.6ZM930 1621.6L525 1882.64L550.2 1315.38L696 923.82L964.2 640.19L1378.2 539.79L1033.5 69.1649L660 228.55L525 -125.36L221.7 164.545L420.6 620.11L177.6 923.82L66 1468.49L-130.2 1814.87L222.6 2173.8" stroke="#00BBFF" stroke-width="2.63475"/>
<path d="M696 923.82H177.6M930 -386.4L1035.3 71.6749L1309.8 -193.13L930 -386.4ZM1079.4 1202.43L964.2 640.19L420.6 620.11L660 228.55L1079.4 1202.43ZM1617.6 923.82L964.2 640.19L1617.6 923.82Z" stroke="#00BBFF" stroke-width="2.63475"/>
<path d="M177.6 923.82L-475.8 640.19M-405.6 70.4197L221.7 164.545L660 228.55L964.2 640.19L1033.5 69.1647L1662.6 165.8L1378.2 539.79L1617.6 923.82L1079.4 1202.43L1309.8 1814.87L-405.6 70.4197ZM525 -125.36L1033.5 69.1647L525 -125.36ZM1034.4 2078.42L525 1882.64L1034.4 2078.42ZM66 -539.51L222.6 165.8L66 -539.51Z" stroke="#00BBFF" stroke-width="2.63475"/>
<path d="M1378.2 552.34C1383.17 552.34 1387.2 546.721 1387.2 539.79C1387.2 532.859 1383.17 527.24 1378.2 527.24C1373.23 527.24 1369.2 532.859 1369.2 539.79C1369.2 546.721 1373.23 552.34 1378.2 552.34Z" fill="#FF9008"/>
<path d="M964.2 652.74C969.17 652.74 973.2 647.121 973.2 640.19C973.2 633.259 969.17 627.64 964.2 627.64C959.229 627.64 955.2 633.259 955.2 640.19C955.2 647.121 959.229 652.74 964.2 652.74Z" fill="#FF9008"/>
<path d="M1079.4 1214.98C1084.37 1214.98 1088.4 1209.36 1088.4 1202.43C1088.4 1195.5 1084.37 1189.88 1079.4 1189.88C1074.43 1189.88 1070.4 1195.5 1070.4 1202.43C1070.4 1209.36 1074.43 1214.98 1079.4 1214.98Z" fill="#FF9008"/>
<path d="M1309.8 1827.42C1314.77 1827.42 1318.8 1821.8 1318.8 1814.87C1318.8 1807.94 1314.77 1802.32 1309.8 1802.32C1304.83 1802.32 1300.8 1807.94 1300.8 1814.87C1300.8 1821.8 1304.83 1827.42 1309.8 1827.42Z" fill="#FF9008"/>
<path d="M930 1634.15C934.97 1634.15 939 1628.53 939 1621.6C939 1614.67 934.97 1609.05 930 1609.05C925.029 1609.05 921 1614.67 921 1621.6C921 1628.53 925.029 1634.15 930 1634.15Z" fill="#FF9008"/>
<path d="M550.2 1327.93C555.171 1327.93 559.2 1322.31 559.2 1315.38C559.2 1308.45 555.171 1302.83 550.2 1302.83C545.23 1302.83 541.2 1308.45 541.2 1315.38C541.2 1322.31 545.23 1327.93 550.2 1327.93Z" fill="#FF9008"/>
<path d="M525 1895.19C529.97 1895.19 534 1889.57 534 1882.64C534 1875.71 529.97 1870.09 525 1870.09C520.029 1870.09 516 1875.71 516 1882.64C516 1889.57 520.029 1895.19 525 1895.19Z" fill="#FF9008"/>
<path d="M65.9999 1481.04C70.9704 1481.04 74.9999 1475.42 74.9999 1468.49C74.9999 1461.56 70.9704 1455.94 65.9999 1455.94C61.0293 1455.94 56.9999 1461.56 56.9999 1468.49C56.9999 1475.42 61.0293 1481.04 65.9999 1481.04Z" fill="#FF9008"/>
<path d="M177.6 936.37C182.57 936.37 186.6 930.751 186.6 923.82C186.6 916.889 182.57 911.27 177.6 911.27C172.629 911.27 168.6 916.889 168.6 923.82C168.6 930.751 172.629 936.37 177.6 936.37Z" fill="#FF9008"/>
<path d="M222.6 178.35C227.57 178.35 231.6 172.731 231.6 165.8C231.6 158.869 227.57 153.25 222.6 153.25C217.629 153.25 213.6 158.869 213.6 165.8C213.6 172.731 217.629 178.35 222.6 178.35Z" fill="#FF9008"/>
<path d="M660 241.1C664.97 241.1 669 235.481 669 228.55C669 221.619 664.97 216 660 216C655.029 216 651 221.619 651 228.55C651 235.481 655.029 241.1 660 241.1Z" fill="#FF9008"/>
<path d="M1034.4 82.97C1039.37 82.97 1043.4 77.3512 1043.4 70.42C1043.4 63.4888 1039.37 57.87 1034.4 57.87C1029.43 57.87 1025.4 63.4888 1025.4 70.42C1025.4 77.3512 1029.43 82.97 1034.4 82.97Z" fill="#FF9008"/>
<path d="M420.6 632.66C425.57 632.66 429.6 627.041 429.6 620.11C429.6 613.179 425.57 607.56 420.6 607.56C415.629 607.56 411.6 613.179 411.6 620.11C411.6 627.041 415.629 632.66 420.6 632.66Z" fill="#FF9008"/>
<path d="M696 936.37C700.97 936.37 705 930.751 705 923.82C705 916.889 700.97 911.27 696 911.27C691.029 911.27 687 916.889 687 923.82C687 930.751 691.029 936.37 696 936.37Z" fill="#FF9008"/>
</g>
<defs>
<clipPath id="clip0">
<rect width="1440" height="2008" fill="white" transform="translate(-6 -35)"/>
</clipPath>
</defs>
</svg>
