<svg width="150" height="150" viewBox="0 0 150 150" fill="none" xmlns="http://www.w3.org/2000/svg">
<g clip-path="url(#clip0)">
<path d="M75.3614 150.723C116.982 150.723 150.723 116.982 150.723 75.3614C150.723 33.7405 116.982 0 75.3614 0C33.7405 0 0 33.7405 0 75.3614C0 116.982 33.7405 150.723 75.3614 150.723Z" fill="#FF9F00"/>
<path d="M64.4635 129.713H86.4538C87.8113 129.713 89.1132 130.252 90.0731 131.212C91.033 132.172 91.5723 133.474 91.5723 134.832V159.983H59.345V134.829C59.3458 133.472 59.8854 132.17 60.8452 131.211C61.805 130.252 63.1065 129.713 64.4635 129.713Z" fill="#7CE6E6"/>
<path d="M65.6021 129.384H67.9588C68.0848 129.384 68.2056 129.434 68.2947 129.523C68.3838 129.612 68.4339 129.733 68.4339 129.859V159.657H65.1301V129.859C65.1301 129.734 65.1798 129.613 65.2682 129.524C65.3566 129.435 65.4766 129.385 65.6021 129.384Z" fill="#154A87"/>
<path d="M83.0342 129.384H85.391C85.517 129.384 85.6378 129.434 85.7269 129.523C85.8159 129.612 85.866 129.733 85.866 129.859V159.657H82.5623V129.859C82.5623 129.734 82.6119 129.613 82.7003 129.524C82.7887 129.435 82.9088 129.385 83.0342 129.384Z" fill="#154A87"/>
<path d="M65.1455 140.172H59.3267V161.654H65.1455V140.172Z" fill="#C8803E"/>
<path d="M85.9086 161.651H91.5752V140.169H85.9086V161.651Z" fill="#C8803E"/>
<path d="M68.4341 119.141H82.5777V132.843C82.5785 133.772 82.3964 134.691 82.0418 135.549C81.6872 136.407 81.1671 137.187 80.5112 137.844C79.8552 138.502 79.0762 139.023 78.2187 139.379C77.3612 139.735 76.442 139.919 75.5135 139.92C73.6383 139.92 71.84 139.175 70.5141 137.849C69.1881 136.523 68.4432 134.724 68.4432 132.849V119.147L68.4341 119.141Z" fill="#C8803E"/>
<path d="M45.8658 102.306C48.2083 99.9631 48.2083 96.1651 45.8658 93.8225C43.5232 91.48 39.7252 91.48 37.3827 93.8225C35.0401 96.1651 35.0401 99.9631 37.3827 102.306C39.7252 104.648 43.5232 104.648 45.8658 102.306Z" fill="#C8803E"/>
<path d="M110.112 104.029C113.401 103.626 115.74 100.634 115.337 97.346C114.935 94.0577 111.943 91.7183 108.654 92.1209C105.366 92.5235 103.027 95.5156 103.429 98.8039C103.832 102.092 106.824 104.432 110.112 104.029Z" fill="#C8803E"/>
<path d="M33.5484 44.8424C42.9321 44.8424 50.539 37.2354 50.539 27.8518C50.539 18.4681 42.9321 10.8612 33.5484 10.8612C24.1648 10.8612 16.5579 18.4681 16.5579 27.8518C16.5579 37.2354 24.1648 44.8424 33.5484 44.8424Z" fill="#6A3410"/>
<path d="M44.1111 50.3537L40.6186 46.8642C39.0416 45.2777 38.1565 43.1316 38.1565 40.8947C38.1565 38.6577 39.0416 36.5117 40.6186 34.9251C42.2052 33.3473 44.352 32.4615 46.5896 32.4615C48.8273 32.4615 50.974 33.3473 52.5607 34.9251L56.0502 38.4146C57.6271 40.0011 58.5122 42.1472 58.5122 44.3841C58.5122 46.6211 57.6271 48.7671 56.0502 50.3537C54.4644 51.9321 52.3181 52.8183 50.0806 52.8183C47.8432 52.8183 45.6968 51.9321 44.1111 50.3537Z" fill="#EF4151"/>
<path d="M117.905 44.8424C127.288 44.8424 134.895 37.2354 134.895 27.8518C134.895 18.4681 127.288 10.8612 117.905 10.8612C108.521 10.8612 100.914 18.4681 100.914 27.8518C100.914 37.2354 108.521 44.8424 117.905 44.8424Z" fill="#6A3410"/>
<path d="M107.341 50.3537L110.834 46.8642C112.411 45.2777 113.296 43.1316 113.296 40.8947C113.296 38.6577 112.411 36.5117 110.834 34.9251C109.247 33.3473 107.101 32.4615 104.863 32.4615C102.625 32.4615 100.478 33.3473 98.8918 34.9251L95.4023 38.4146C93.8239 40.0004 92.9377 42.1467 92.9377 44.3841C92.9377 46.6216 93.8239 48.7679 95.4023 50.3537C96.9881 51.9321 99.1344 52.8183 101.372 52.8183C103.609 52.8183 105.756 51.9321 107.341 50.3537Z" fill="#EF4151"/>
<path d="M104.883 96.5988C121.107 80.3746 121.107 54.07 104.883 37.8457C88.6584 21.6215 62.3537 21.6215 46.1295 37.8457C29.9053 54.07 29.9053 80.3746 46.1295 96.5988C62.3537 112.823 88.6584 112.823 104.883 96.5988Z" fill="#6A3410"/>
<path d="M108.794 76.1319C108.794 57.748 93.8908 42.845 75.5069 42.845C57.123 42.845 42.22 57.748 42.22 76.1319V92.7601C42.22 111.144 57.123 126.047 75.5069 126.047C93.8908 126.047 108.794 111.144 108.794 92.7601V76.1319Z" fill="#C8803E"/>
<path d="M111.51 76.8048C111.51 56.0537 94.2821 39.0692 73.5616 40.1776C64.3677 40.6862 55.717 44.6933 49.3836 51.3772C43.0503 58.061 39.5144 66.9148 39.5012 76.1227C55.3987 72.4201 67.9924 65.6513 75.5072 54.1689C82.6628 67.2498 95.0525 74.3506 111.51 76.8048Z" fill="#6A3410"/>
<path d="M55.2403 93.8319C55.2403 94.2491 54.6313 94.5871 53.867 94.5871C53.1028 94.5871 52.4968 94.2491 52.4968 93.8319C52.4968 93.4148 53.1058 93.0798 53.867 93.0798C54.6283 93.0798 55.2403 93.4178 55.2403 93.8319Z" fill="#AC5B0F"/>
<path d="M59.5368 93.8319C59.5368 94.2491 58.9278 94.5871 58.1635 94.5871C57.3993 94.5871 56.7903 94.2491 56.7903 93.8319C56.7903 93.4148 57.3993 93.0798 58.1635 93.0798C58.9278 93.0798 59.5368 93.4178 59.5368 93.8319Z" fill="#AC5B0F"/>
<path d="M57.5483 95.8141C57.5483 96.2313 56.9393 96.5692 56.175 96.5692C55.4108 96.5692 54.8079 96.2191 54.8079 95.8141C54.8079 95.4091 55.4168 95.059 56.1781 95.059C56.9393 95.059 57.5483 95.3969 57.5483 95.8141Z" fill="#AC5B0F"/>
<path d="M61.8875 95.8141C61.8875 96.2313 61.2785 96.5692 60.5143 96.5692C59.75 96.5692 59.144 96.2313 59.144 95.8141C59.144 95.3969 59.753 95.059 60.5143 95.059C61.2755 95.059 61.8875 95.3969 61.8875 95.8141Z" fill="#AC5B0F"/>
<path d="M63.8304 93.8319C63.8304 94.2491 63.2214 94.5871 62.4602 94.5871C61.6989 94.5871 61.0869 94.2491 61.0869 93.8319C61.0869 93.4148 61.6959 93.0798 62.4602 93.0798C63.2244 93.0798 63.8304 93.4178 63.8304 93.8319Z" fill="#AC5B0F"/>
<path d="M90.5855 93.8319C90.5855 94.2491 89.9765 94.5871 89.2122 94.5871C88.448 94.5871 87.842 94.2491 87.842 93.8319C87.842 93.4148 88.451 93.0798 89.2122 93.0798C89.9735 93.0798 90.5855 93.4178 90.5855 93.8319Z" fill="#AC5B0F"/>
<path d="M94.8819 93.8319C94.8819 94.2491 94.2729 94.5871 93.5086 94.5871C92.7444 94.5871 92.1384 94.2491 92.1384 93.8319C92.1384 93.4148 92.7474 93.0798 93.5086 93.0798C94.2699 93.0798 94.8819 93.4178 94.8819 93.8319Z" fill="#AC5B0F"/>
<path d="M92.8936 95.8141C92.8936 96.2313 92.2846 96.5692 91.5234 96.5692C90.7622 96.5692 90.1501 96.2313 90.1501 95.8141C90.1501 95.3969 90.7591 95.059 91.5234 95.059C92.2877 95.059 92.8936 95.3969 92.8936 95.8141Z" fill="#AC5B0F"/>
<path d="M97.233 95.8141C97.233 96.2313 96.624 96.5692 95.8597 96.5692C95.0954 96.5692 94.4895 96.2313 94.4895 95.8141C94.4895 95.3969 95.0985 95.059 95.8597 95.059C96.6209 95.059 97.233 95.3969 97.233 95.8141Z" fill="#AC5B0F"/>
<path d="M99.1781 93.8319C99.1781 94.2491 98.5692 94.5871 97.8049 94.5871C97.0406 94.5871 96.4316 94.2491 96.4316 93.8319C96.4316 93.4148 97.0406 93.0798 97.8049 93.0798C98.5692 93.0798 99.1781 93.4178 99.1781 93.8319Z" fill="#AC5B0F"/>
<path d="M81.9745 99.6739C82.5583 96.1006 80.135 92.7307 76.5618 92.1468C72.9885 91.563 69.6186 93.9863 69.0347 97.5595C68.4508 101.133 70.8742 104.503 74.4474 105.087C78.0206 105.67 81.3906 103.247 81.9745 99.6739Z" fill="#FFFEF9"/>
<path d="M64.1134 87.7239C63.7532 87.7239 63.4078 87.5808 63.1531 87.3261C62.8984 87.0714 62.7554 86.726 62.7554 86.3658C62.7311 85.6225 62.4188 84.9177 61.8844 84.4004C61.35 83.8832 60.6354 83.594 59.8916 83.594C59.1479 83.594 58.4333 83.8832 57.8989 84.4004C57.3645 84.9177 57.0521 85.6225 57.0279 86.3658C57.0279 86.726 56.8848 87.0714 56.6301 87.3261C56.3754 87.5808 56.03 87.7239 55.6699 87.7239C55.3097 87.7239 54.9643 87.5808 54.7096 87.3261C54.4549 87.0714 54.3118 86.726 54.3118 86.3658C54.2945 85.6221 54.4259 84.8824 54.6985 84.1903C54.9711 83.4981 55.3794 82.8674 55.8992 82.3353C56.4191 81.8031 57.0401 81.3803 57.7257 81.0916C58.4113 80.8029 59.1477 80.6542 59.8916 80.6542C60.6355 80.6542 61.3719 80.8029 62.0576 81.0916C62.7432 81.3803 63.3642 81.8031 63.884 82.3353C64.4039 82.8674 64.8121 83.4981 65.0847 84.1903C65.3573 84.8824 65.4888 85.6221 65.4714 86.3658C65.4714 86.726 65.3283 87.0714 65.0737 87.3261C64.819 87.5808 64.4736 87.7239 64.1134 87.7239Z" fill="#262424"/>
<path d="M93.4938 87.7239C93.1336 87.7239 92.7882 87.5808 92.5335 87.3261C92.2788 87.0714 92.1357 86.726 92.1357 86.3658C92.1115 85.6225 91.7991 84.9177 91.2647 84.4004C90.7303 83.8832 90.0157 83.594 89.272 83.594C88.5282 83.594 87.8137 83.8832 87.2792 84.4004C86.7448 84.9177 86.4325 85.6225 86.4083 86.3658C86.4083 86.726 86.2652 87.0714 86.0105 87.3261C85.7558 87.5808 85.4104 87.7239 85.0502 87.7239C84.6901 87.7239 84.3446 87.5808 84.09 87.3261C83.8353 87.0714 83.6922 86.726 83.6922 86.3658C83.6748 85.6221 83.8063 84.8824 84.0789 84.1903C84.3515 83.4981 84.7597 82.8674 85.2796 82.3353C85.7994 81.8031 86.4204 81.3803 87.106 81.0916C87.7917 80.8029 88.5281 80.6542 89.272 80.6542C90.0159 80.6542 90.7523 80.8029 91.4379 81.0916C92.1236 81.3803 92.7445 81.8031 93.2644 82.3353C93.7843 82.8674 94.1925 83.4981 94.4651 84.1903C94.7377 84.8824 94.8692 85.6221 94.8518 86.3658C94.8522 86.5443 94.8173 86.7211 94.7492 86.886C94.6811 87.051 94.5811 87.2008 94.4549 87.327C94.3287 87.4532 94.1789 87.5532 94.0139 87.6213C93.849 87.6894 93.6722 87.7243 93.4938 87.7239Z" fill="#262424"/>
</g>
<defs>
<clipPath id="clip0">
<rect width="150" height="150" fill="white"/>
</clipPath>
</defs>
</svg>

